<?xml version="1.0" standalone="no"?>
<!DOCTYPE svg PUBLIC "-//W3C//DTD SVG 20010904//EN"
 "http://www.w3.org/TR/2001/REC-SVG-20010904/DTD/svg10.dtd">
<svg version="1.0" xmlns="http://www.w3.org/2000/svg"
 width="312.000000pt" height="257.000000pt" viewBox="0 0 312.000000 257.000000"
 preserveAspectRatio="xMidYMid meet">

<g transform="translate(0.000000,257.000000) scale(0.100000,-0.100000)"
fill="#000000" stroke="none">
<path d="M1368 2367 c30 -31 28 -53 -13 -151 -60 -145 -43 -211 70 -282 l30
-19 -17 25 c-73 103 -79 163 -29 284 17 44 31 89 29 100 -3 20 -60 66 -81 66
-6 0 -1 -10 11 -23z"/>
<path d="M1550 2348 c-47 -78 -41 -186 18 -299 63 -120 57 -168 -35 -297 l-46
-65 32 19 c47 27 117 97 137 136 30 56 23 111 -30 232 -53 121 -69 196 -57
262 5 24 7 44 5 44 -3 0 -13 -15 -24 -32z"/>
<path d="M1350 1643 c-88 -11 -236 -46 -269 -63 -81 -41 -111 -94 -111 -192 1
-177 91 -347 234 -442 30 -20 57 -36 60 -36 3 0 6 62 6 139 l0 139 38 33 c86
77 189 149 214 149 25 0 204 -128 236 -168 8 -11 12 -57 12 -149 0 -73 3 -133
6 -133 11 0 69 43 114 85 33 31 56 44 88 49 166 25 288 191 242 330 -16 50
-51 74 -120 82 -56 6 -60 8 -70 40 -15 43 -74 79 -184 112 -72 22 -103 25
-271 27 -104 2 -206 1 -225 -2z m441 -72 c186 -32 193 -71 18 -101 -109 -18
-374 -24 -502 -11 -299 31 -301 90 -5 121 98 10 409 5 489 -9z m323 -182 c58
-27 54 -116 -7 -185 -28 -33 -104 -80 -113 -71 -2 2 6 30 17 63 12 32 24 92
27 132 4 67 6 72 28 72 13 0 34 -5 48 -11z"/>
<path d="M1402 1118 c2 -15 11 -24 26 -26 18 -3 22 1 22 22 0 21 -5 26 -26 26
-21 0 -25 -4 -22 -22z"/>
<path d="M1470 1114 c0 -21 4 -25 23 -22 14 2 23 11 25 26 3 18 -1 22 -22 22
-21 0 -26 -5 -26 -26z"/>
<path d="M1600 1030 c0 -101 2 -110 19 -110 10 0 39 -3 65 -6 l46 -7 0 117 0
116 -65 0 -65 0 0 -110z"/>
<path d="M1406 1073 c-3 -4 -6 -15 -6 -25 0 -13 7 -18 25 -18 19 0 25 5 25 23
0 22 -29 35 -44 20z"/>
<path d="M1470 1055 c0 -20 5 -25 26 -25 20 0 25 4 22 22 -2 13 -12 22 -25 24
-19 3 -23 -1 -23 -21z"/>
<path d="M955 884 c-99 -30 -96 -61 9 -93 138 -43 266 -56 551 -56 287 0 423
13 559 55 102 32 111 68 22 91 -22 5 -50 13 -61 16 -18 5 -18 4 -6 -11 23 -28
-5 -45 -115 -69 -89 -19 -130 -21 -389 -22 -241 0 -305 3 -379 18 -128 26
-171 51 -128 76 25 15 -2 13 -63 -5z"/>
<path d="M370 632 c-83 -41 -94 -193 -16 -247 51 -36 181 -2 147 39 -12 14
-15 14 -34 1 -29 -20 -49 -19 -80 5 -78 62 -17 200 70 161 30 -14 49 -2 40 23
-7 17 -47 36 -75 36 -9 0 -33 -8 -52 -18z"/>
<path d="M615 643 c-84 -22 -121 -128 -74 -213 25 -45 54 -60 112 -60 74 0
117 50 117 137 0 60 -29 109 -75 129 -35 14 -46 15 -80 7z m80 -68 c27 -26 34
-89 14 -126 -29 -56 -111 -42 -130 21 -29 96 52 169 116 105z"/>
<path d="M2005 636 c-52 -23 -69 -51 -73 -119 -3 -53 0 -67 20 -97 55 -81 175
-66 214 27 30 71 2 157 -60 187 -41 19 -61 20 -101 2z m94 -55 c61 -61 13
-185 -63 -165 -37 9 -56 41 -56 92 0 76 72 120 119 73z"/>
<path d="M2498 631 c-31 -25 -44 -71 -28 -101 7 -12 31 -31 55 -41 47 -21 57
-35 43 -61 -10 -20 -48 -24 -65 -7 -15 15 -43 4 -43 -15 0 -21 35 -38 77 -38
48 0 83 34 83 81 0 47 -6 55 -60 83 -30 16 -45 30 -45 43 0 17 6 20 46 18 76
-4 73 41 -3 53 -24 4 -40 0 -60 -15z"/>
<path d="M810 505 l0 -135 25 0 c24 0 25 3 25 55 l0 55 45 0 c38 0 45 3 45 19
0 16 -8 20 -42 23 -42 3 -43 4 -46 41 l-3 37 55 0 c49 0 56 2 56 20 0 18 -7
20 -80 20 l-80 0 0 -135z"/>
<path d="M1010 505 l0 -135 25 0 c24 0 25 3 25 55 l0 55 45 0 c38 0 45 3 45
20 0 17 -7 20 -45 20 l-45 0 0 40 0 40 50 0 c43 0 50 3 50 20 0 18 -7 20 -75
20 l-75 0 0 -135z"/>
<path d="M1200 505 l0 -135 80 0 c73 0 80 2 80 20 0 18 -7 20 -56 20 l-55 0 3
38 c3 36 4 37 41 37 32 0 37 3 37 23 0 19 -5 22 -40 22 -39 0 -40 1 -40 35 l0
35 55 0 c48 0 55 2 55 20 0 18 -7 20 -80 20 l-80 0 0 -135z"/>
<path d="M1400 505 l0 -135 75 0 c68 0 75 2 75 20 0 17 -7 20 -50 20 l-50 0 0
40 0 40 40 0 c33 0 40 3 40 20 0 17 -7 20 -40 20 -39 0 -40 1 -40 35 l0 35 50
0 c43 0 50 3 50 20 0 18 -7 20 -75 20 l-75 0 0 -135z"/>
<path d="M1672 508 l3 -133 25 0 c27 0 27 1 29 71 l1 45 53 -3 52 -3 1 -55 c1
-52 3 -55 28 -58 l26 -3 0 136 0 136 -27 -3 c-26 -3 -28 -5 -27 -55 l1 -53
-53 0 c-59 0 -58 -2 -54 73 1 35 0 37 -30 37 l-31 0 3 -132z"/>
<path d="M2212 535 c3 -99 5 -106 33 -135 23 -24 37 -30 73 -30 35 0 49 6 73
29 28 29 29 32 29 135 l0 106 -25 0 c-25 0 -25 0 -25 -100 0 -94 -1 -100 -24
-115 -20 -13 -29 -14 -46 -5 -30 16 -40 51 -40 141 0 79 0 79 -26 79 l-26 0 4
-105z"/>
<path d="M2660 505 l0 -135 80 0 c73 0 80 2 80 19 0 17 -8 20 -52 23 l-53 3 0
35 c0 34 1 35 43 38 34 3 43 7 40 20 -2 12 -15 18 -46 20 -41 3 -42 4 -42 38
l0 34 55 0 c48 0 55 2 55 20 0 18 -7 20 -80 20 l-80 0 0 -135z"/>
<path d="M620 310 c0 -5 7 -10 15 -10 11 0 15 -12 15 -45 0 -25 5 -45 10 -45
6 0 10 20 10 45 0 25 5 45 10 45 6 0 10 5 10 10 0 6 -16 10 -35 10 -19 0 -35
-4 -35 -10z"/>
<path d="M757 294 c-8 -16 -17 -42 -21 -59 -7 -28 -7 -29 12 -12 23 21 41 22
48 2 4 -8 10 -15 14 -15 9 0 -17 89 -30 104 -5 4 -15 -5 -23 -20z m21 -43
c-15 -5 -19 4 -11 24 6 18 7 18 13 -1 4 -10 3 -21 -2 -23z"/>
<path d="M882 304 c-43 -30 -21 -99 30 -92 28 4 40 48 12 48 -13 0 -14 -3 -5
-14 9 -10 8 -15 -2 -19 -23 -9 -39 9 -35 39 3 25 7 29 31 27 29 -2 37 11 11
21 -20 8 -16 9 -42 -10z"/>
<path d="M1002 268 c-2 -56 -1 -58 23 -58 14 0 25 5 25 10 0 6 -9 10 -19 10
-16 0 -21 8 -24 48 -3 46 -3 46 -5 -10z"/>
<path d="M1107 313 c-11 -10 -8 -103 3 -103 6 0 10 25 10 55 0 56 -1 60 -13
48z"/>
<path d="M1244 305 c-4 -8 -4 -22 -1 -30 11 -28 -9 -24 -27 6 -25 42 -36 36
-36 -22 0 -27 4 -48 9 -45 5 4 8 17 6 31 -3 33 6 32 30 -5 11 -16 23 -30 28
-30 4 0 7 25 7 55 0 55 -6 68 -16 40z"/>
<path d="M1320 265 c0 -54 0 -55 30 -55 17 0 30 5 30 10 0 6 -9 10 -20 10 -25
0 -26 16 -2 29 16 10 16 10 0 11 -10 0 -18 7 -18 15 0 8 9 15 20 15 11 0 20 5
20 10 0 6 -13 10 -30 10 -30 0 -30 -1 -30 -55z"/>
<path d="M1516 307 c-21 -16 -24 -60 -6 -82 20 -24 64 -15 68 13 2 15 -2 22
-13 22 -9 0 -13 -4 -10 -10 11 -18 -5 -31 -26 -20 -36 20 -11 81 27 66 10 -4
14 -1 12 6 -7 19 -31 21 -52 5z"/>
<path d="M1652 304 c-24 -17 -30 -62 -10 -82 15 -15 51 -15 66 0 20 20 15 76
-7 88 -25 13 -22 13 -49 -6z m48 -19 c18 -22 3 -57 -23 -53 -22 3 -33 28 -23
54 7 18 30 18 46 -1z"/>
<path d="M1780 265 c0 -55 0 -55 31 -55 17 0 28 4 24 10 -3 6 -15 10 -26 10
-22 0 -22 24 -1 26 25 3 26 6 5 14 -31 13 -29 30 3 30 14 0 23 4 19 10 -3 6
-17 10 -31 10 -23 0 -24 -3 -24 -55z"/>
<path d="M1903 313 c-20 -7 -15 -41 7 -53 11 -6 20 -15 20 -20 0 -6 -9 -10
-20 -10 -11 0 -20 -4 -20 -10 0 -15 36 -12 49 4 15 17 5 44 -20 51 -11 4 -17
11 -13 16 3 6 13 8 21 5 9 -4 13 -1 11 6 -5 14 -18 18 -35 11z"/>
<path d="M2070 266 c0 -31 5 -56 10 -56 6 0 10 11 10 25 0 18 5 25 20 25 15 0
20 -7 20 -25 0 -14 5 -25 10 -25 6 0 10 23 10 50 0 28 -4 50 -10 50 -5 0 -10
-9 -10 -20 0 -13 -7 -20 -20 -20 -13 0 -20 7 -20 19 0 11 -4 23 -10 26 -6 4
-10 -15 -10 -49z"/>
<path d="M2210 265 c0 -55 0 -55 31 -55 17 0 28 4 24 10 -3 6 -13 10 -21 10
-8 0 -14 7 -14 16 0 8 4 13 9 9 5 -3 12 -1 16 5 3 5 -1 10 -9 10 -9 0 -16 7
-16 15 0 8 9 15 20 15 11 0 20 5 20 10 0 6 -13 10 -30 10 -30 0 -30 -1 -30
-55z"/>
<path d="M2327 313 c-11 -10 -8 -103 3 -103 6 0 10 9 10 20 0 11 4 20 9 20 5
0 13 -9 16 -20 3 -11 11 -20 16 -20 12 0 11 14 -2 27 -8 8 -7 17 3 32 11 19
11 24 -6 37 -21 15 -39 18 -49 7z m43 -28 c0 -8 -7 -15 -15 -15 -8 0 -15 7
-15 15 0 8 7 15 15 15 8 0 15 -7 15 -15z"/>
<path d="M2449 308 c-7 -85 -5 -93 24 -96 15 -2 27 2 27 8 0 6 -8 10 -17 8
-11 -2 -18 3 -18 12 0 8 5 15 12 15 6 0 15 3 19 8 4 4 -2 7 -14 7 -13 0 -22 6
-22 15 0 8 9 15 20 15 11 0 20 5 20 10 0 15 -50 12 -51 -2z"/>
</g>
</svg>
